<mxfile host="app.diagrams.net" modified="2023-01-14T11:58:23.216Z" agent="5.0 (Macintosh; Intel Mac OS X 10_15_7) AppleWebKit/537.36 (KHTML, like Gecko) Chrome/108.0.0.0 Safari/537.36 Edg/108.0.1462.76" version="20.8.5" etag="0Hgdklk937WtjsAcTexW" type="github">
  <diagram id="HW3-wF_kVU0GYXKQALnY" name="第 1 页">
    <mxGraphModel dx="1146" dy="798" grid="1" gridSize="10" guides="1" tooltips="1" connect="1" arrows="1" fold="1" page="1" pageScale="1" pageWidth="827" pageHeight="1169" math="0" shadow="0">
      <root>
        <mxCell id="0" />
        <mxCell id="1" parent="0" />
        <mxCell id="Ku5rPqVDEu0kp4lwVWxD-3" style="edgeStyle=orthogonalEdgeStyle;rounded=0;orthogonalLoop=1;jettySize=auto;html=1;" edge="1" parent="1" source="Ku5rPqVDEu0kp4lwVWxD-1" target="Ku5rPqVDEu0kp4lwVWxD-2">
          <mxGeometry relative="1" as="geometry" />
        </mxCell>
        <mxCell id="Ku5rPqVDEu0kp4lwVWxD-1" value="" style="rounded=0;whiteSpace=wrap;html=1;" vertex="1" parent="1">
          <mxGeometry x="150" y="200" width="120" height="60" as="geometry" />
        </mxCell>
        <mxCell id="Ku5rPqVDEu0kp4lwVWxD-5" style="edgeStyle=orthogonalEdgeStyle;rounded=0;orthogonalLoop=1;jettySize=auto;html=1;entryX=0.5;entryY=0;entryDx=0;entryDy=0;" edge="1" parent="1" source="Ku5rPqVDEu0kp4lwVWxD-2" target="Ku5rPqVDEu0kp4lwVWxD-4">
          <mxGeometry relative="1" as="geometry" />
        </mxCell>
        <mxCell id="Ku5rPqVDEu0kp4lwVWxD-2" value="" style="rounded=0;whiteSpace=wrap;html=1;" vertex="1" parent="1">
          <mxGeometry x="150" y="320" width="120" height="60" as="geometry" />
        </mxCell>
        <mxCell id="Ku5rPqVDEu0kp4lwVWxD-7" style="edgeStyle=orthogonalEdgeStyle;rounded=0;orthogonalLoop=1;jettySize=auto;html=1;entryX=0;entryY=0.5;entryDx=0;entryDy=0;" edge="1" parent="1" source="Ku5rPqVDEu0kp4lwVWxD-4" target="Ku5rPqVDEu0kp4lwVWxD-6">
          <mxGeometry relative="1" as="geometry" />
        </mxCell>
        <mxCell id="Ku5rPqVDEu0kp4lwVWxD-4" value="" style="rounded=0;whiteSpace=wrap;html=1;" vertex="1" parent="1">
          <mxGeometry x="150" y="440" width="120" height="60" as="geometry" />
        </mxCell>
        <mxCell id="Ku5rPqVDEu0kp4lwVWxD-9" style="orthogonalLoop=1;jettySize=auto;html=1;entryX=1;entryY=0.5;entryDx=0;entryDy=0;rounded=0;exitX=0.5;exitY=0;exitDx=0;exitDy=0;" edge="1" parent="1" source="Ku5rPqVDEu0kp4lwVWxD-6" target="Ku5rPqVDEu0kp4lwVWxD-2">
          <mxGeometry relative="1" as="geometry" />
        </mxCell>
        <mxCell id="Ku5rPqVDEu0kp4lwVWxD-6" value="" style="rounded=0;whiteSpace=wrap;html=1;" vertex="1" parent="1">
          <mxGeometry x="360" y="440" width="120" height="60" as="geometry" />
        </mxCell>
        <mxCell id="Ku5rPqVDEu0kp4lwVWxD-10" value="&lt;div class=&quot;lake-content&quot;&gt;&lt;p style=&quot;margin: 0; padding: 0; min-height: 24px&quot; class=&quot;ne-p&quot; id=&quot;ue68f30f5&quot;&gt;commitMutationEffects&lt;/p&gt;&lt;/div&gt;DFS去执行commit" style="text;html=1;strokeColor=none;fillColor=none;align=center;verticalAlign=middle;whiteSpace=wrap;rounded=0;" vertex="1" parent="1">
          <mxGeometry x="150" y="110" width="150" height="70" as="geometry" />
        </mxCell>
      </root>
    </mxGraphModel>
  </diagram>
</mxfile>
